<?xml version="1.0" standalone="no"?>
<!DOCTYPE svg PUBLIC "-//W3C//DTD SVG 20010904//EN"
 "http://www.w3.org/TR/2001/REC-SVG-20010904/DTD/svg10.dtd">
<svg version="1.0" xmlns="http://www.w3.org/2000/svg"
 width="256.000000pt" height="256.000000pt" viewBox="0 0 256.000000 256.000000"
 preserveAspectRatio="xMidYMid meet">

<g transform="translate(0.000000,256.000000) scale(0.100000,-0.100000)"
fill="#000000" stroke="none">
<path d="M1125 2519 c-540 -73 -966 -474 -1072 -1006 -23 -119 -23 -347 0
-466 127 -641 729 -1085 1367 -1008 212 26 441 116 606 240 483 360 640 1020
371 1556 -174 347 -502 597 -879 670 -103 20 -300 27 -393 14z m599 -425 c219
-56 376 -263 376 -493 0 -143 -46 -248 -159 -364 -232 -239 -413 -297 -617
-197 -76 37 -175 140 -135 140 5 0 35 -12 67 -27 52 -25 71 -28 159 -28 89 0
106 3 156 28 85 41 260 231 301 327 28 63 26 162 -2 229 -33 75 -113 145 -197
171 -112 34 -165 26 -375 -56 -45 -18 -47 -18 -67 0 -28 26 -26 52 9 114 29
49 80 96 142 128 83 43 234 56 342 28z m-591 -549 c84 -22 168 -68 210 -114
58 -64 49 -74 -33 -40 -98 41 -179 48 -266 21 -75 -24 -119 -55 -205 -147
-141 -152 -175 -219 -167 -335 12 -158 131 -267 305 -278 82 -5 138 7 236 49
108 48 152 30 128 -52 -17 -55 -103 -142 -174 -174 -334 -153 -731 133 -703
506 11 148 69 252 218 388 102 93 197 150 289 175 70 19 93 19 162 1z"/>
</g>
</svg>
